<?xml version="1.0" encoding="UTF-8"?>
<svg width="231px" height="63px" viewBox="0 0 231 63" version="1.1" xmlns="http://www.w3.org/2000/svg" xmlns:xlink="http://www.w3.org/1999/xlink">
    <!-- Generator: Sketch 51.3 (57544) - http://www.bohemiancoding.com/sketch -->
    <title>Group</title>
    <desc>Created with Sketch.</desc>
    <defs>
        <linearGradient x1="50%" y1="17.9416546%" x2="50%" y2="100%" id="linearGradient-1">
            <stop stop-color="#0094FF" offset="0%"></stop>
            <stop stop-color="#0060CD" offset="100%"></stop>
        </linearGradient>
    </defs>
    <g id="Page-1" stroke="none" stroke-width="1" fill="none" fill-rule="evenodd">
        <g id="Group">
            <path d="M12.9638672,49.7910156 C5.05371094,49.7910156 0,44.7128906 0,36.1191406 C0,27.6474609 5.12695312,22.4960938 12.9638672,22.4960938 C20.8007812,22.4960938 25.9277344,27.6230469 25.9277344,36.1191406 C25.9277344,44.7373047 20.8740234,49.7910156 12.9638672,49.7910156 Z M12.9638672,44.3466797 C16.4550781,44.3466797 18.6767578,41.3925781 18.6767578,36.1435547 C18.6767578,30.9433594 16.4306641,27.9404297 12.9638672,27.9404297 C9.49707031,27.9404297 7.2265625,30.9433594 7.2265625,36.1435547 C7.2265625,41.3925781 9.44824219,44.3466797 12.9638672,44.3466797 Z M29.1503906,30.7480469 C29.1503906,25.7675781 33.4472656,22.4960938 40.1123047,22.4960938 C46.8261719,22.4960938 50.9765625,25.9384766 51.1230469,31.0654297 L44.5556641,31.0654297 C44.3359375,28.9414062 42.7490234,27.5009766 40.1123047,27.5009766 C37.6464844,27.5009766 36.0107422,28.6240234 36.0107422,30.3574219 C36.0107422,31.7001953 36.9873047,32.6035156 39.6240234,33.1650391 L44.0917969,34.1171875 C49.5605469,35.2646484 51.8066406,37.4130859 51.8066406,41.2460938 C51.8066406,46.3974609 47.0947266,49.7910156 40.3564453,49.7910156 C33.1298828,49.7910156 28.9550781,46.421875 28.4912109,41.2705078 L35.4492188,41.2705078 C35.8886719,43.5654297 37.5244141,44.7861328 40.3564453,44.7861328 C43.0419922,44.7861328 44.7021484,43.6875 44.7021484,41.9785156 C44.7021484,40.5869141 43.7988281,39.8056641 41.2353516,39.2197266 L36.7675781,38.2919922 C31.7138672,37.2177734 29.1503906,34.6787109 29.1503906,30.7480469 Z M91.9189453,23.0576172 L84.9853516,49.2294922 L77.3925781,49.2294922 L72.65625,30.7236328 L72.5097656,30.7236328 L67.7978516,49.2294922 L60.3027344,49.2294922 L53.3447266,23.0576172 L60.5224609,23.0576172 L64.4775391,42.4667969 L64.6240234,42.4667969 L69.2626953,23.0576172 L76.0986328,23.0576172 L80.7617188,42.4667969 L80.9082031,42.4667969 L84.8876953,23.0576172 L91.9189453,23.0576172 Z M102.099609,49.6445312 C97.1191406,49.6445312 93.3349609,46.421875 93.3349609,41.7099609 C93.3349609,36.9492188 96.9970703,34.1904297 103.515625,33.7998047 L110.107422,33.4091797 L110.107422,31.6757812 C110.107422,29.234375 108.398438,27.8183594 105.712891,27.8183594 C103.051758,27.8183594 101.367188,29.1367188 101.025391,31.0654297 L94.5068359,31.0654297 C94.7753906,25.9873047 99.0966797,22.4960938 106.030273,22.4960938 C112.744141,22.4960938 117.114258,25.9628906 117.114258,31.2363281 L117.114258,49.2294922 L110.229492,49.2294922 L110.229492,45.2255859 L110.083008,45.2255859 C108.618164,48.0087891 105.371094,49.6445312 102.099609,49.6445312 Z M104.443359,44.4931641 C107.543945,44.4931641 110.107422,42.4667969 110.107422,39.6347656 L110.107422,37.7304688 L104.589844,38.0722656 C101.928711,38.2675781 100.415039,39.4638672 100.415039,41.3193359 C100.415039,43.2724609 102.026367,44.4931641 104.443359,44.4931641 Z M121.875,49.2294922 L121.875,14 L129.003906,14 L129.003906,49.2294922 L121.875,49.2294922 Z M143.530273,49.6445312 C136.987305,49.6445312 132.861328,44.46875 132.861328,36.0947266 C132.861328,27.7939453 137.011719,22.6425781 143.579102,22.6425781 C147.363281,22.6425781 150.292969,24.6445312 151.5625,27.5498047 L151.708984,27.5498047 L151.708984,14 L158.837891,14 L158.837891,49.2294922 L151.806641,49.2294922 L151.806641,44.7373047 L151.68457,44.7373047 C150.415039,47.6181641 147.387695,49.6445312 143.530273,49.6445312 Z M145.947266,28.3554688 C142.358398,28.3554688 140.161133,31.3583984 140.161133,36.1435547 C140.161133,40.953125 142.358398,43.9072266 145.947266,43.9072266 C149.487305,43.9072266 151.757812,40.9287109 151.757812,36.1435547 C151.757812,31.3828125 149.487305,28.3554688 145.947266,28.3554688 Z" id="oswald" fill="#000000"></path>
            <circle id="Oval" fill="url(#linearGradient-1)" cx="199.5" cy="31.5" r="31.5"></circle>
        </g>
    </g>
</svg>